<mxfile host="Electron" modified="2024-09-17T03:15:03.185Z" agent="Mozilla/5.0 (Windows NT 10.0; Win64; x64) AppleWebKit/537.36 (KHTML, like Gecko) draw.io/24.2.5 Chrome/120.0.6099.109 Electron/28.1.0 Safari/537.36" etag="tWW40JghkVrYwdGWHT7Z" version="24.2.5" type="device">
  <diagram name="Página-1" id="aNGoRACpn5uE5VAJT8JK">
    <mxGraphModel dx="3172" dy="1129" grid="1" gridSize="10" guides="1" tooltips="1" connect="1" arrows="1" fold="1" page="1" pageScale="1" pageWidth="827" pageHeight="1169" math="0" shadow="0">
      <root>
        <mxCell id="0" />
        <mxCell id="1" parent="0" />
        <mxCell id="hwqvf6K0qRmxzXTQToEN-1" value="DIAGRAMA GENERAL" style="rounded=0;whiteSpace=wrap;html=1;" vertex="1" parent="1">
          <mxGeometry x="50" y="60" width="560" height="60" as="geometry" />
        </mxCell>
        <mxCell id="hwqvf6K0qRmxzXTQToEN-66" style="edgeStyle=orthogonalEdgeStyle;rounded=0;orthogonalLoop=1;jettySize=auto;html=1;exitX=0.5;exitY=1;exitDx=0;exitDy=0;entryX=0.5;entryY=0;entryDx=0;entryDy=0;" edge="1" parent="1" source="hwqvf6K0qRmxzXTQToEN-2" target="hwqvf6K0qRmxzXTQToEN-4">
          <mxGeometry relative="1" as="geometry" />
        </mxCell>
        <mxCell id="hwqvf6K0qRmxzXTQToEN-2" value="" style="ellipse;html=1;shape=startState;fillColor=#000000;strokeColor=#ff0000;" vertex="1" parent="1">
          <mxGeometry x="310" y="150" width="30" height="30" as="geometry" />
        </mxCell>
        <mxCell id="hwqvf6K0qRmxzXTQToEN-67" style="edgeStyle=orthogonalEdgeStyle;rounded=0;orthogonalLoop=1;jettySize=auto;html=1;exitX=0.5;exitY=1;exitDx=0;exitDy=0;entryX=0.5;entryY=0;entryDx=0;entryDy=0;" edge="1" parent="1" source="hwqvf6K0qRmxzXTQToEN-4" target="hwqvf6K0qRmxzXTQToEN-9">
          <mxGeometry relative="1" as="geometry" />
        </mxCell>
        <mxCell id="hwqvf6K0qRmxzXTQToEN-4" value="MOSTRAR MENU" style="rounded=1;whiteSpace=wrap;html=1;arcSize=40;fontColor=#000000;fillColor=#ffffc0;strokeColor=#ff0000;" vertex="1" parent="1">
          <mxGeometry x="265" y="220" width="120" height="40" as="geometry" />
        </mxCell>
        <mxCell id="hwqvf6K0qRmxzXTQToEN-68" style="edgeStyle=orthogonalEdgeStyle;rounded=0;orthogonalLoop=1;jettySize=auto;html=1;exitX=0.5;exitY=1;exitDx=0;exitDy=0;entryX=0.5;entryY=0;entryDx=0;entryDy=0;" edge="1" parent="1" source="hwqvf6K0qRmxzXTQToEN-9" target="hwqvf6K0qRmxzXTQToEN-10">
          <mxGeometry relative="1" as="geometry" />
        </mxCell>
        <mxCell id="hwqvf6K0qRmxzXTQToEN-9" value="ELEGIR OPCION" style="rounded=1;whiteSpace=wrap;html=1;arcSize=40;fontColor=#000000;fillColor=#ffffc0;strokeColor=#ff0000;" vertex="1" parent="1">
          <mxGeometry x="265" y="290" width="120" height="40" as="geometry" />
        </mxCell>
        <mxCell id="hwqvf6K0qRmxzXTQToEN-12" style="edgeStyle=orthogonalEdgeStyle;rounded=0;orthogonalLoop=1;jettySize=auto;html=1;exitX=0;exitY=0.5;exitDx=0;exitDy=0;entryX=0.5;entryY=0;entryDx=0;entryDy=0;" edge="1" parent="1" source="hwqvf6K0qRmxzXTQToEN-10" target="hwqvf6K0qRmxzXTQToEN-11">
          <mxGeometry relative="1" as="geometry" />
        </mxCell>
        <mxCell id="hwqvf6K0qRmxzXTQToEN-14" value="CLIENTE" style="edgeLabel;html=1;align=center;verticalAlign=middle;resizable=0;points=[];" vertex="1" connectable="0" parent="hwqvf6K0qRmxzXTQToEN-12">
          <mxGeometry x="-0.0588" y="1" relative="1" as="geometry">
            <mxPoint as="offset" />
          </mxGeometry>
        </mxCell>
        <mxCell id="hwqvf6K0qRmxzXTQToEN-17" style="edgeStyle=orthogonalEdgeStyle;rounded=0;orthogonalLoop=1;jettySize=auto;html=1;exitX=0.5;exitY=1;exitDx=0;exitDy=0;entryX=0.5;entryY=0;entryDx=0;entryDy=0;" edge="1" parent="1" source="hwqvf6K0qRmxzXTQToEN-10" target="hwqvf6K0qRmxzXTQToEN-16">
          <mxGeometry relative="1" as="geometry" />
        </mxCell>
        <mxCell id="hwqvf6K0qRmxzXTQToEN-18" value="STAFF" style="edgeLabel;html=1;align=center;verticalAlign=middle;resizable=0;points=[];" vertex="1" connectable="0" parent="hwqvf6K0qRmxzXTQToEN-17">
          <mxGeometry x="0.1385" y="-1" relative="1" as="geometry">
            <mxPoint as="offset" />
          </mxGeometry>
        </mxCell>
        <mxCell id="hwqvf6K0qRmxzXTQToEN-70" style="edgeStyle=orthogonalEdgeStyle;rounded=0;orthogonalLoop=1;jettySize=auto;html=1;exitX=1;exitY=0.5;exitDx=0;exitDy=0;entryX=0.5;entryY=0;entryDx=0;entryDy=0;" edge="1" parent="1" source="hwqvf6K0qRmxzXTQToEN-10" target="hwqvf6K0qRmxzXTQToEN-23">
          <mxGeometry relative="1" as="geometry" />
        </mxCell>
        <mxCell id="hwqvf6K0qRmxzXTQToEN-71" value="SALIR" style="edgeLabel;html=1;align=center;verticalAlign=middle;resizable=0;points=[];" vertex="1" connectable="0" parent="hwqvf6K0qRmxzXTQToEN-70">
          <mxGeometry x="-0.1609" y="4" relative="1" as="geometry">
            <mxPoint x="-1" as="offset" />
          </mxGeometry>
        </mxCell>
        <mxCell id="hwqvf6K0qRmxzXTQToEN-10" value="OPCION?" style="rhombus;whiteSpace=wrap;html=1;fontColor=#000000;fillColor=#ffffc0;strokeColor=#ff0000;" vertex="1" parent="1">
          <mxGeometry x="280" y="360" width="80" height="40" as="geometry" />
        </mxCell>
        <mxCell id="hwqvf6K0qRmxzXTQToEN-11" value="SEGUIR DIAGRAMA" style="rounded=1;whiteSpace=wrap;html=1;arcSize=40;fontColor=#000000;fillColor=#ffffc0;strokeColor=#ff0000;" vertex="1" parent="1">
          <mxGeometry x="70" y="400" width="120" height="40" as="geometry" />
        </mxCell>
        <mxCell id="hwqvf6K0qRmxzXTQToEN-38" style="edgeStyle=orthogonalEdgeStyle;rounded=0;orthogonalLoop=1;jettySize=auto;html=1;exitX=0.5;exitY=1;exitDx=0;exitDy=0;entryX=0.5;entryY=0;entryDx=0;entryDy=0;" edge="1" parent="1" source="hwqvf6K0qRmxzXTQToEN-16" target="hwqvf6K0qRmxzXTQToEN-33">
          <mxGeometry relative="1" as="geometry" />
        </mxCell>
        <mxCell id="hwqvf6K0qRmxzXTQToEN-16" value="INGRESE NOMBRE DE USUARIO" style="rounded=1;whiteSpace=wrap;html=1;arcSize=40;fontColor=#000000;fillColor=#ffffc0;strokeColor=#ff0000;" vertex="1" parent="1">
          <mxGeometry x="260" y="480" width="120" height="40" as="geometry" />
        </mxCell>
        <mxCell id="hwqvf6K0qRmxzXTQToEN-23" value="" style="ellipse;html=1;shape=endState;fillColor=#000000;strokeColor=#ff0000;" vertex="1" parent="1">
          <mxGeometry x="565" y="470" width="30" height="30" as="geometry" />
        </mxCell>
        <mxCell id="hwqvf6K0qRmxzXTQToEN-31" style="edgeStyle=orthogonalEdgeStyle;rounded=0;orthogonalLoop=1;jettySize=auto;html=1;exitX=0.5;exitY=1;exitDx=0;exitDy=0;entryX=0.5;entryY=0;entryDx=0;entryDy=0;" edge="1" parent="1" source="hwqvf6K0qRmxzXTQToEN-27" target="hwqvf6K0qRmxzXTQToEN-28">
          <mxGeometry relative="1" as="geometry" />
        </mxCell>
        <mxCell id="hwqvf6K0qRmxzXTQToEN-27" value="INGRESE CONTRASEÑA" style="rounded=1;whiteSpace=wrap;html=1;arcSize=40;fontColor=#000000;fillColor=#ffffc0;strokeColor=#ff0000;" vertex="1" parent="1">
          <mxGeometry x="265" y="610" width="120" height="40" as="geometry" />
        </mxCell>
        <mxCell id="hwqvf6K0qRmxzXTQToEN-29" style="edgeStyle=orthogonalEdgeStyle;rounded=0;orthogonalLoop=1;jettySize=auto;html=1;exitX=0;exitY=0.5;exitDx=0;exitDy=0;entryX=0;entryY=0.5;entryDx=0;entryDy=0;" edge="1" parent="1" source="hwqvf6K0qRmxzXTQToEN-28" target="hwqvf6K0qRmxzXTQToEN-4">
          <mxGeometry relative="1" as="geometry">
            <Array as="points">
              <mxPoint y="715" />
              <mxPoint y="240" />
            </Array>
          </mxGeometry>
        </mxCell>
        <mxCell id="hwqvf6K0qRmxzXTQToEN-30" value="NO" style="edgeLabel;html=1;align=center;verticalAlign=middle;resizable=0;points=[];" vertex="1" connectable="0" parent="hwqvf6K0qRmxzXTQToEN-29">
          <mxGeometry x="-0.7472" relative="1" as="geometry">
            <mxPoint as="offset" />
          </mxGeometry>
        </mxCell>
        <mxCell id="hwqvf6K0qRmxzXTQToEN-40" style="edgeStyle=orthogonalEdgeStyle;rounded=0;orthogonalLoop=1;jettySize=auto;html=1;exitX=0.5;exitY=1;exitDx=0;exitDy=0;" edge="1" parent="1" source="hwqvf6K0qRmxzXTQToEN-28">
          <mxGeometry relative="1" as="geometry">
            <mxPoint x="324.8461538461538" y="790" as="targetPoint" />
          </mxGeometry>
        </mxCell>
        <mxCell id="hwqvf6K0qRmxzXTQToEN-41" value="SI" style="edgeLabel;html=1;align=center;verticalAlign=middle;resizable=0;points=[];" vertex="1" connectable="0" parent="hwqvf6K0qRmxzXTQToEN-40">
          <mxGeometry x="-0.2574" y="2" relative="1" as="geometry">
            <mxPoint as="offset" />
          </mxGeometry>
        </mxCell>
        <mxCell id="hwqvf6K0qRmxzXTQToEN-28" value="CORRECTO?" style="rhombus;whiteSpace=wrap;html=1;fontColor=#000000;fillColor=#ffffc0;strokeColor=#ff0000;" vertex="1" parent="1">
          <mxGeometry x="285" y="695" width="80" height="40" as="geometry" />
        </mxCell>
        <mxCell id="hwqvf6K0qRmxzXTQToEN-37" style="edgeStyle=orthogonalEdgeStyle;rounded=0;orthogonalLoop=1;jettySize=auto;html=1;exitX=0;exitY=0.5;exitDx=0;exitDy=0;entryX=0;entryY=0.5;entryDx=0;entryDy=0;" edge="1" parent="1" source="hwqvf6K0qRmxzXTQToEN-33" target="hwqvf6K0qRmxzXTQToEN-4">
          <mxGeometry relative="1" as="geometry">
            <Array as="points">
              <mxPoint y="560" />
              <mxPoint y="240" />
            </Array>
          </mxGeometry>
        </mxCell>
        <mxCell id="hwqvf6K0qRmxzXTQToEN-39" value="NO" style="edgeLabel;html=1;align=center;verticalAlign=middle;resizable=0;points=[];" vertex="1" connectable="0" parent="hwqvf6K0qRmxzXTQToEN-37">
          <mxGeometry x="-0.9237" y="-2" relative="1" as="geometry">
            <mxPoint as="offset" />
          </mxGeometry>
        </mxCell>
        <mxCell id="hwqvf6K0qRmxzXTQToEN-33" value="CORRECTO??" style="rhombus;whiteSpace=wrap;html=1;fontColor=#000000;fillColor=#ffffc0;strokeColor=#ff0000;" vertex="1" parent="1">
          <mxGeometry x="280" y="540" width="80" height="40" as="geometry" />
        </mxCell>
        <mxCell id="hwqvf6K0qRmxzXTQToEN-34" style="edgeStyle=orthogonalEdgeStyle;rounded=0;orthogonalLoop=1;jettySize=auto;html=1;exitX=0.5;exitY=1;exitDx=0;exitDy=0;entryX=0.449;entryY=-0.012;entryDx=0;entryDy=0;entryPerimeter=0;" edge="1" parent="1" source="hwqvf6K0qRmxzXTQToEN-33" target="hwqvf6K0qRmxzXTQToEN-27">
          <mxGeometry relative="1" as="geometry" />
        </mxCell>
        <mxCell id="hwqvf6K0qRmxzXTQToEN-35" value="SI" style="edgeLabel;html=1;align=center;verticalAlign=middle;resizable=0;points=[];" vertex="1" connectable="0" parent="hwqvf6K0qRmxzXTQToEN-34">
          <mxGeometry x="-0.2454" y="-4" relative="1" as="geometry">
            <mxPoint as="offset" />
          </mxGeometry>
        </mxCell>
        <mxCell id="hwqvf6K0qRmxzXTQToEN-64" style="edgeStyle=orthogonalEdgeStyle;rounded=0;orthogonalLoop=1;jettySize=auto;html=1;exitX=0.5;exitY=1;exitDx=0;exitDy=0;entryX=0.5;entryY=0;entryDx=0;entryDy=0;" edge="1" parent="1" source="hwqvf6K0qRmxzXTQToEN-42" target="hwqvf6K0qRmxzXTQToEN-43">
          <mxGeometry relative="1" as="geometry" />
        </mxCell>
        <mxCell id="hwqvf6K0qRmxzXTQToEN-42" value="MOSTRAR MENU DE OPCIONES" style="rounded=1;whiteSpace=wrap;html=1;arcSize=40;fontColor=#000000;fillColor=#ffffc0;strokeColor=#ff0000;" vertex="1" parent="1">
          <mxGeometry x="265" y="790" width="120" height="40" as="geometry" />
        </mxCell>
        <mxCell id="hwqvf6K0qRmxzXTQToEN-65" style="edgeStyle=orthogonalEdgeStyle;rounded=0;orthogonalLoop=1;jettySize=auto;html=1;exitX=0.5;exitY=1;exitDx=0;exitDy=0;entryX=0.5;entryY=0;entryDx=0;entryDy=0;" edge="1" parent="1" source="hwqvf6K0qRmxzXTQToEN-43" target="hwqvf6K0qRmxzXTQToEN-44">
          <mxGeometry relative="1" as="geometry" />
        </mxCell>
        <mxCell id="hwqvf6K0qRmxzXTQToEN-43" value="SELECCIONAR OPCION" style="rounded=1;whiteSpace=wrap;html=1;arcSize=40;fontColor=#000000;fillColor=#ffffc0;strokeColor=#ff0000;" vertex="1" parent="1">
          <mxGeometry x="265" y="860" width="120" height="40" as="geometry" />
        </mxCell>
        <mxCell id="hwqvf6K0qRmxzXTQToEN-50" style="edgeStyle=orthogonalEdgeStyle;rounded=0;orthogonalLoop=1;jettySize=auto;html=1;exitX=0;exitY=0.5;exitDx=0;exitDy=0;entryX=0.25;entryY=0;entryDx=0;entryDy=0;" edge="1" parent="1" source="hwqvf6K0qRmxzXTQToEN-44" target="hwqvf6K0qRmxzXTQToEN-45">
          <mxGeometry relative="1" as="geometry" />
        </mxCell>
        <mxCell id="hwqvf6K0qRmxzXTQToEN-51" value="RECEPCION" style="edgeLabel;html=1;align=center;verticalAlign=middle;resizable=0;points=[];" vertex="1" connectable="0" parent="hwqvf6K0qRmxzXTQToEN-50">
          <mxGeometry x="0.2828" y="-1" relative="1" as="geometry">
            <mxPoint as="offset" />
          </mxGeometry>
        </mxCell>
        <mxCell id="hwqvf6K0qRmxzXTQToEN-52" style="edgeStyle=orthogonalEdgeStyle;rounded=0;orthogonalLoop=1;jettySize=auto;html=1;exitX=0.5;exitY=1;exitDx=0;exitDy=0;entryX=0.5;entryY=0;entryDx=0;entryDy=0;" edge="1" parent="1" source="hwqvf6K0qRmxzXTQToEN-44" target="hwqvf6K0qRmxzXTQToEN-46">
          <mxGeometry relative="1" as="geometry" />
        </mxCell>
        <mxCell id="hwqvf6K0qRmxzXTQToEN-53" value="PEDIDOS" style="edgeLabel;html=1;align=center;verticalAlign=middle;resizable=0;points=[];" vertex="1" connectable="0" parent="hwqvf6K0qRmxzXTQToEN-52">
          <mxGeometry x="-0.5419" relative="1" as="geometry">
            <mxPoint as="offset" />
          </mxGeometry>
        </mxCell>
        <mxCell id="hwqvf6K0qRmxzXTQToEN-54" style="edgeStyle=orthogonalEdgeStyle;rounded=0;orthogonalLoop=1;jettySize=auto;html=1;exitX=1;exitY=1;exitDx=0;exitDy=0;entryX=0.5;entryY=0;entryDx=0;entryDy=0;" edge="1" parent="1" source="hwqvf6K0qRmxzXTQToEN-44" target="hwqvf6K0qRmxzXTQToEN-47">
          <mxGeometry relative="1" as="geometry" />
        </mxCell>
        <mxCell id="hwqvf6K0qRmxzXTQToEN-55" value="SALON" style="edgeLabel;html=1;align=center;verticalAlign=middle;resizable=0;points=[];" vertex="1" connectable="0" parent="hwqvf6K0qRmxzXTQToEN-54">
          <mxGeometry x="-0.223" y="3" relative="1" as="geometry">
            <mxPoint as="offset" />
          </mxGeometry>
        </mxCell>
        <mxCell id="hwqvf6K0qRmxzXTQToEN-56" style="edgeStyle=orthogonalEdgeStyle;rounded=0;orthogonalLoop=1;jettySize=auto;html=1;exitX=1;exitY=0.5;exitDx=0;exitDy=0;entryX=0.5;entryY=0;entryDx=0;entryDy=0;" edge="1" parent="1" source="hwqvf6K0qRmxzXTQToEN-44" target="hwqvf6K0qRmxzXTQToEN-48">
          <mxGeometry relative="1" as="geometry" />
        </mxCell>
        <mxCell id="hwqvf6K0qRmxzXTQToEN-57" value="INVENTARIO" style="edgeLabel;html=1;align=center;verticalAlign=middle;resizable=0;points=[];" vertex="1" connectable="0" parent="hwqvf6K0qRmxzXTQToEN-56">
          <mxGeometry x="0.0716" y="1" relative="1" as="geometry">
            <mxPoint as="offset" />
          </mxGeometry>
        </mxCell>
        <mxCell id="hwqvf6K0qRmxzXTQToEN-58" style="edgeStyle=orthogonalEdgeStyle;rounded=0;orthogonalLoop=1;jettySize=auto;html=1;exitX=1;exitY=0;exitDx=0;exitDy=0;entryX=0.5;entryY=0;entryDx=0;entryDy=0;" edge="1" parent="1" source="hwqvf6K0qRmxzXTQToEN-44" target="hwqvf6K0qRmxzXTQToEN-49">
          <mxGeometry relative="1" as="geometry" />
        </mxCell>
        <mxCell id="hwqvf6K0qRmxzXTQToEN-59" value="CONFIGURACIONES" style="edgeLabel;html=1;align=center;verticalAlign=middle;resizable=0;points=[];" vertex="1" connectable="0" parent="hwqvf6K0qRmxzXTQToEN-58">
          <mxGeometry x="0.4459" y="-2" relative="1" as="geometry">
            <mxPoint as="offset" />
          </mxGeometry>
        </mxCell>
        <mxCell id="hwqvf6K0qRmxzXTQToEN-62" style="edgeStyle=orthogonalEdgeStyle;rounded=0;orthogonalLoop=1;jettySize=auto;html=1;exitX=0;exitY=0;exitDx=0;exitDy=0;entryX=0;entryY=0.5;entryDx=0;entryDy=0;" edge="1" parent="1" source="hwqvf6K0qRmxzXTQToEN-44" target="hwqvf6K0qRmxzXTQToEN-4">
          <mxGeometry relative="1" as="geometry">
            <Array as="points">
              <mxPoint x="305" y="920" />
              <mxPoint y="920" />
              <mxPoint y="240" />
            </Array>
          </mxGeometry>
        </mxCell>
        <mxCell id="hwqvf6K0qRmxzXTQToEN-63" value="SALIR" style="edgeLabel;html=1;align=center;verticalAlign=middle;resizable=0;points=[];" vertex="1" connectable="0" parent="hwqvf6K0qRmxzXTQToEN-62">
          <mxGeometry x="-0.6578" y="-1" relative="1" as="geometry">
            <mxPoint as="offset" />
          </mxGeometry>
        </mxCell>
        <mxCell id="hwqvf6K0qRmxzXTQToEN-44" value="OPCION?" style="rhombus;whiteSpace=wrap;html=1;fontColor=#000000;fillColor=#ffffc0;strokeColor=#ff0000;" vertex="1" parent="1">
          <mxGeometry x="285" y="930" width="80" height="40" as="geometry" />
        </mxCell>
        <mxCell id="hwqvf6K0qRmxzXTQToEN-45" value="SEGUIR CON DIAGRAMA" style="rounded=1;whiteSpace=wrap;html=1;arcSize=40;fontColor=#000000;fillColor=#ffffc0;strokeColor=#ff0000;" vertex="1" parent="1">
          <mxGeometry x="120" y="1010" width="120" height="40" as="geometry" />
        </mxCell>
        <mxCell id="hwqvf6K0qRmxzXTQToEN-46" value="SEGUIR CON DIAGRAMA" style="rounded=1;whiteSpace=wrap;html=1;arcSize=40;fontColor=#000000;fillColor=#ffffc0;strokeColor=#ff0000;" vertex="1" parent="1">
          <mxGeometry x="270" y="1010" width="120" height="40" as="geometry" />
        </mxCell>
        <mxCell id="hwqvf6K0qRmxzXTQToEN-47" value="SEGUIR CON DIAGRAMA" style="rounded=1;whiteSpace=wrap;html=1;arcSize=40;fontColor=#000000;fillColor=#ffffc0;strokeColor=#ff0000;" vertex="1" parent="1">
          <mxGeometry x="414" y="1010" width="120" height="40" as="geometry" />
        </mxCell>
        <mxCell id="hwqvf6K0qRmxzXTQToEN-48" value="SEGUIR CON DIAGRAMA" style="rounded=1;whiteSpace=wrap;html=1;arcSize=40;fontColor=#000000;fillColor=#ffffc0;strokeColor=#ff0000;" vertex="1" parent="1">
          <mxGeometry x="560" y="1010" width="120" height="40" as="geometry" />
        </mxCell>
        <mxCell id="hwqvf6K0qRmxzXTQToEN-49" value="SEGUIR CON DIAGRAMA" style="rounded=1;whiteSpace=wrap;html=1;arcSize=40;fontColor=#000000;fillColor=#ffffc0;strokeColor=#ff0000;" vertex="1" parent="1">
          <mxGeometry x="707" y="1010" width="120" height="40" as="geometry" />
        </mxCell>
      </root>
    </mxGraphModel>
  </diagram>
</mxfile>
